# xmcd
#
# Track frame offsets: 
#        150
#        20082
#        38447
#        54152
#        68677
#        84807
#        97800
#        117457
#        131680
#        146737
#        165775
#        183587
#        203512
#        221015
#        239262
#        257745
#        272889
#
# Disc length: 3859 seconds
#
# Revision: 0
# Processed by: cddbd v1.5.2PL0 Copyright (c) Steve Scherf et al.
# Submitted via: ExactAudioCopy v0.99pb4
#
DISCID=e20f1111
DTITLE=Kevin Michael - Kevin Michael
DYEAR=2007
DGENRE=R&B
TTITLE0=We All Want The Same Thing (Feat. Lupe Fiasco)
TTITLE1=It Don't Make Any Difference To Me (Feat. Wyclef Jean)
TTITLE2=Can't Get Enuff (Feat. Shorty Da Kid)
TTITLE3=Ha Ha Ha
TTITLE4=Vicki Secrets
TTITLE5=Hood Buzzin
TTITLE6=Ain't Got You
TTITLE7=Stone Cold Killa
TTITLE8=Weekend Jumpoff
TTITLE9=Love Letter
TTITLE10=Ghost
TTITLE11=Liquid Lava Love
TTITLE12=Too Blessed (Feat. Q-Tip)
TTITLE13=We All Want The Same Thing (Acoustic) (Feat. Akil Dasan)
TTITLE14=It Don't Make Any Difference To Me (Acoustic) (Feat. Akil Das
TTITLE14=an)
TTITLE15=Lollipop (Bonus Track)
TTITLE16=Spaceship (Bonus Track)
EXTD=
EXTT0=
EXTT1=
EXTT2=
EXTT3=
EXTT4=
EXTT5=
EXTT6=
EXTT7=
EXTT8=
EXTT9=
EXTT10=
EXTT11=
EXTT12=
EXTT13=
EXTT14=
EXTT15=
EXTT16=
PLAYORDER=
